# xmcd
#
# Track frame offsets:
# 150
# 31684
# 48710
# 70544
# 91774
# 109433
# 139806
# 157994
# 175235
# 184560
# 214844
# 258418
#
# Disc length: 3920 seconds
#
# Revision: 1
# Processed by: cddbd v1.5.1PL0 Copyright (c) Steve Scherf et al.
# Submitted via: inCDius 2.0b9
#
DISCID=9f0f4e0c
DTITLE=Curtis Mayfield - Curtis - Live!
DYEAR=1900
DGENRE=
TTITLE0=Mighty Mighty (Spade and Whitey)
TTITLE1=I Plan To Stay A Believer
TTITLE2=We've Only Just Begun
TTITLE3=People Get Ready
TTITLE4=Stare And Stare
TTITLE5=Check Out Your Mind
TTITLE6=Gypsy Woman
TTITLE7=The Makings Of You
TTITLE8=We The People Who Are Darker Than Blue
TTITLE9=(Don't Worry) If There's A Hell Below
TTITLE10=We're All Going To Go
TTITLE11=Stone Junkie
EXTD=
EXTT0=
EXTT1=
EXTT2=
EXTT3=
EXTT4=
EXTT5=
EXTT6=
EXTT7=
EXTT8=
EXTT9=
EXTT10=
EXTT11=
PLAYORDER=
